<svg xmlns="http://www.w3.org/2000/svg" viewBox="0 0 24 24" id="dominos-pizza"><path fill="#0078AE" d="M.61 15.145a2.128 2.128 0 0 0 0 2.982l5.521 5.295c.806.773 2.069.77 2.872-.007l6.952-6.732-8.432-8.538-6.913 7z"></path><path fill="#006897" d="m7.523 8.145-6.913 7a2.128 2.128 0 0 0 0 2.982l2.694 2.584 8.366-8.366-4.147-4.2z"></path><path fill="#FFF" d="M9.143 15.202a2.058 2.058 0 0 1 2.939 0c.407.41.61.949.61 1.489 0 .538-.203 1.078-.61 1.488a2.069 2.069 0 0 1-1.469.617 2.064 2.064 0 0 1-1.47-.617 2.114 2.114 0 0 1-.609-1.488 2.107 2.107 0 0 1 .609-1.489z"></path><path fill="#E31837" d="M23.39 6.173 17.903.617a2.064 2.064 0 0 0-2.946 0L8.043 7.62l8.431 8.538 6.916-7.003a2.128 2.128 0 0 0 0-2.982z"></path><path fill="#C61530" d="M16.431 0c-.533 0-1.066.206-1.473.618L8.043 7.62l4.149 4.202 2.741-2.741a2.125 2.125 0 0 1 .048-2.928 2.057 2.057 0 0 1 2.909-.031l2.741-2.741L17.902.617A2.059 2.059 0 0 0 16.431 0z"></path><path fill="#FFF" d="M17.923 9.131a2.062 2.062 0 0 1-2.94 0 2.122 2.122 0 0 1 0-2.978 2.06 2.06 0 0 1 2.94 0c.405.409.609.95.609 1.489 0 .538-.204 1.079-.609 1.489z"></path><path fill="#DEDEDE" d="M16.453 5.536c-.532 0-1.063.208-1.47.618a2.126 2.126 0 0 0-.048 2.928l2.958-2.958a2.059 2.059 0 0 0-1.44-.588z"></path><path fill="#FFF" d="M5.981 18.094a2.07 2.07 0 0 1-2.942 0 2.112 2.112 0 0 1-.609-1.488c0-.539.202-1.079.609-1.491a2.063 2.063 0 0 1 2.941 0c.406.412.608.951.607 1.49a2.1 2.1 0 0 1-.606 1.489z"></path><path fill="#DEDEDE" d="M4.508 14.5c-.532 0-1.065.205-1.47.616a2.119 2.119 0 0 0-.609 1.491c0 .538.202 1.078.609 1.488l.002.002L6 15.136l-.02-.021a2.07 2.07 0 0 0-1.472-.615zm6.104.085c-.532 0-1.065.205-1.47.616a2.119 2.119 0 0 0-.609 1.491c0 .538.202 1.078.609 1.488l.002.002 2.96-2.96-.02-.021a2.067 2.067 0 0 0-1.472-.616z"></path></svg>